<?xml version="1.0" encoding="UTF-8" standalone="no"?>
<svg
   xmlns:dc="http://purl.org/dc/elements/1.1/"
   xmlns:cc="http://creativecommons.org/ns#"
   xmlns:rdf="http://www.w3.org/1999/02/22-rdf-syntax-ns#"
   xmlns:svg="http://www.w3.org/2000/svg"
   xmlns="http://www.w3.org/2000/svg"
   xmlns:sodipodi="http://sodipodi.sourceforge.net/DTD/sodipodi-0.dtd"
   xmlns:inkscape="http://www.inkscape.org/namespaces/inkscape"
   sodipodi:docname="DN logo.svg"
   inkscape:version="1.0 (4035a4fb49, 2020-05-01)"
   id="svg883"
   version="1.1"
   viewBox="0 0 210 297"
   height="297mm"
   width="210mm">
  <defs
     id="defs877" />
  <sodipodi:namedview
     inkscape:window-maximized="1"
     inkscape:window-y="-8"
     inkscape:window-x="-8"
     inkscape:window-height="1017"
     inkscape:window-width="1920"
     showgrid="false"
     inkscape:document-rotation="0"
     inkscape:current-layer="layer1"
     inkscape:document-units="mm"
     inkscape:cy="560"
     inkscape:cx="400"
     inkscape:zoom="0.35"
     inkscape:pageshadow="2"
     inkscape:pageopacity="0.0"
     borderopacity="1.0"
     bordercolor="#666666"
     pagecolor="#ffffff"
     id="base" />
  <metadata
     id="metadata880">
    <rdf:RDF>
      <cc:Work
         rdf:about="">
        <dc:format>image/svg+xml</dc:format>
        <dc:type
           rdf:resource="http://purl.org/dc/dcmitype/StillImage" />
        <dc:title></dc:title>
      </cc:Work>
    </rdf:RDF>
  </metadata>
  <g
     id="layer1"
     inkscape:groupmode="layer"
     inkscape:label="Layer 1">
    <path
       id="path869"
       d="m 51.859073,61.301785 c -12.12363,-0.009 -23.99209,1.46959 -35.630019,5.54312 -0.10855,0.038 -0.20529,0.12042 -0.29504,0.22793 -1.20669,1.44566 -0.75602,8.76004 0.27845,10.98226 0.12955,0.27825 0.2814,0.55696 0.44564,0.83591 1.03915,1.76488 2.69188,3.54444 3.97864,5.35654 1.09978,1.54882 1.68574,3.15688 2.10646,4.80413 0.33215,1.3004 0.56371,2.62463 0.84728,3.96746 0.36746,1.73995 1.28209,5.03608 2.53476,8.634055 0.705909,2.02748 1.51865,4.12452 2.41979,6.13692 0.992969,2.21749 2.073839,4.30757 3.22493,5.95017 1.260099,1.79822 2.89516,3.28178 4.741669,4.53108 3.52835,2.38717 7.843079,3.90295 11.889709,5.01157 6.311622,1.72912 13.220872,1.59201 19.630646,0.27268 4.58974,-0.94473 9.12943,-2.7205 13.08218,-5.28425 0.74871,-0.48561 1.48376,-0.98927 2.18604,-1.53203 3.12307,-2.41368 5.599,-5.59731 7.77053,-8.94922 0.70989,-1.09573 1.38834,-2.20898 2.04479,-3.3198 0.4916,-0.83188 0.96679,-1.79926 1.43157,-2.81712 1.84328,-4.036715 3.4641,-9.161465 4.73144,-12.601515 0.69045,-1.87409 1.287822,-3.29367 1.743782,-3.66665 0.51208,-0.41888 1.84192,-0.52134 3.29911,-0.48681 1.45717,-0.0345 2.78702,0.0679 3.2991,0.48681 0.45596,0.37298 1.05332,1.79256 1.74378,3.66665 1.26733,3.44005 2.88814,8.5648 4.73143,12.601515 0.46478,1.01786 0.93995,1.98524 1.43156,2.81712 0.65646,1.11082 1.33492,2.22407 2.04479,3.3198 2.17155,3.35191 4.64746,6.53554 7.77054,8.94922 0.70228,0.54276 1.43733,1.04642 2.18604,1.53203 3.95276,2.56375 8.49246,4.33952 13.08219,5.28425 6.40977,1.31933 13.31904,1.45644 19.63062,-0.27268 4.04665,-1.10862 8.36138,-2.6244 11.88973,-5.01157 1.84651,-1.2493 3.48155,-2.73286 4.74168,-4.53108 1.15107,-1.6426 2.23195,-3.73268 3.22492,-5.95017 0.90114,-2.0124 1.71388,-4.10944 2.41977,-6.13692 1.25269,-3.597975 2.16732,-6.894105 2.53478,-8.634055 0.28357,-1.34283 0.51514,-2.66706 0.84728,-3.96746 0.42072,-1.64725 1.00666,-3.25531 2.10646,-4.80413 1.28674,-1.8121 2.93949,-3.59166 3.97865,-5.35654 0.16423,-0.27895 0.31608,-0.55766 0.44563,-0.83591 1.03449,-2.22222 1.48515,-9.5366 0.27845,-10.98226 -0.0898,-0.10751 -0.18649,-0.18994 -0.29504,-0.22793 -11.63793,-4.07353 -23.50639,-5.55232 -35.63001,-5.54312 -16.96465,0.0129 -34.21426,5.74777 -52.46235,5.74777 -18.248102,0 -35.497732,-5.7349 -52.462357,-5.74777 z m 11.158551,5.8883 c 2.713404,0.0175 5.425854,0.23119 8.094304,0.63704 5.4464,0.82839 11.27806,1.68558 15.80871,4.81978 2.21108,1.52959 4.21583,3.72512 5.18955,6.2441 0.11327,0.29303 0.22111,0.58787 0.3049,0.88922 0.82917,2.98104 0.42924,6.17052 -0.33433,9.27145 -0.35378,1.43663 -0.7783,2.85612 -1.20794,4.22375 -0.92603,2.94766 -2.30851,5.78874 -4.03326,8.377765 -0.57857,0.86848 -1.1955,1.70879 -1.84684,2.51499 -1.00373,1.24242 -2.07357,2.45618 -3.19697,3.62193 -2.7398,2.84313 -5.83496,5.36682 -9.33445,7.07795 -4.15526,2.03181 -8.967585,2.68777 -13.591735,2.79551 -4.747799,0.11063 -9.858049,-0.0304 -14.073719,-2.21718 -3.281901,-1.7024 -5.997681,-4.52946 -8.080681,-7.65628 -0.41345,-0.62064 -0.81108,-1.24865 -1.173259,-1.88692 -0.763681,-1.34579 -1.35998,-2.77658 -1.854481,-4.25 -1.08965,-3.246795 -1.6313,-6.723135 -2.00116,-10.112795 -0.088,-0.80652 -0.207819,-1.6419 -0.33622,-2.48872 -0.512,-3.37635 -1.17244,-6.982 -0.707309,-10.16067 0.241419,-1.64995 0.779949,-3.18647 1.81459,-4.50891 4.81129,-6.1496 14.729448,-5.55419 22.46006,-6.65132 2.672329,-0.37926 5.38684,-0.55814 8.10024,-0.54069 z m 82.607596,0 c 2.7134,-0.0175 5.42789,0.16143 8.10024,0.54069 7.73061,1.09713 17.64877,0.50172 22.46006,6.65132 1.03464,1.32244 1.57316,2.85896 1.81459,4.50891 0.46514,3.17867 -0.19531,6.78432 -0.70731,10.16067 -0.1284,0.84682 -0.24822,1.6822 -0.33622,2.48872 -0.36985,3.38966 -0.91151,6.866 -2.00116,10.112795 -0.4945,1.47342 -1.09081,2.90421 -1.85448,4.25 -0.36218,0.63827 -0.7598,1.26628 -1.17326,1.88692 -2.083,3.12682 -4.79878,5.95388 -8.08068,7.65628 -4.21566,2.18679 -9.32592,2.32781 -14.07372,2.21718 -4.62416,-0.10774 -9.43647,-0.7637 -13.59174,-2.79551 -3.49949,-1.71113 -6.59465,-4.23482 -9.33446,-7.07795 -1.12339,-1.16575 -2.19322,-2.37951 -3.19697,-3.62193 -0.65133,-0.8062 -1.26826,-1.64651 -1.84684,-2.51499 -1.72475,-2.589025 -3.10722,-5.430105 -4.03326,-8.377765 -0.42963,-1.36763 -0.85416,-2.78712 -1.20792,-4.22375 -0.76357,-3.10093 -1.1635,-6.29041 -0.33436,-9.27145 0.0838,-0.30135 0.19164,-0.59619 0.30491,-0.88922 0.97373,-2.51898 2.97849,-4.71451 5.18955,-6.2441 4.53065,-3.1342 10.36229,-3.99139 15.80873,-4.81978 2.66844,-0.40585 5.38088,-0.61959 8.0943,-0.63704 z M 57.564342,137.96703 c -0.485558,0.004 -0.959189,0.0294 -1.419468,0.0788 -2.31525,0.24913 -4.24611,2.41048 -5.39812,4.43417 -1.410761,2.47829 -2.175901,5.25432 -2.587871,8.12895 -0.479639,3.34676 -0.468759,6.82478 -0.326551,10.16067 0.009,0.20034 0.01331,0.40469 0.02259,0.60387 0.17834,3.82867 0.284851,8.00343 0.769171,11.99764 0.257791,2.12579 0.62984,4.1943 1.17271,6.13692 0.83462,2.98659 2.077659,5.66962 3.999521,7.74408 1.31676,1.42132 4.368318,0.85709 6.260877,0.44209 6.702647,-1.46971 12.777237,-4.79447 18.998787,-8.18617 3.99683,-2.17889 8.05702,-4.37416 12.38885,-6.13692 1.09868,-0.44709 2.20862,-0.8757 3.34569,-1.25787 0.87825,-0.29519 2.02019,0.12026 3.0956,0.53733 0.47544,0.35574 1.00296,0.60164 1.5803,0.72054 0.21014,0.0432 0.4259,0.0722 0.649552,0.08 0.54721,0.019 1.09815,0.0419 1.65038,0.0651 1.20953,0.10355 2.42916,0.1282 3.64893,0.11499 1.21966,0.0133 2.43899,-0.0115 3.6484,-0.11499 0.55232,-0.0232 1.10323,-0.046 1.65058,-0.0651 0.22366,-0.008 0.43955,-0.0367 0.64972,-0.08 0.57746,-0.11888 1.10503,-0.36476 1.5805,-0.72054 1.07531,-0.41703 2.21705,-0.83248 3.0952,-0.53733 1.13705,0.38216 2.24702,0.81078 3.34569,1.25787 4.33191,1.76276 8.39214,3.95802 12.38906,6.13692 6.22156,3.3917 12.29614,6.71646 18.99879,8.18617 1.89255,0.415 4.94393,0.97923 6.26069,-0.44209 1.92183,-2.07446 3.16489,-4.75749 3.9995,-7.74408 0.54289,-1.94262 0.91494,-4.01113 1.1727,-6.13692 0.48434,-3.99421 0.59085,-8.16897 0.7692,-11.99764 0.009,-0.19918 0.014,-0.40353 0.0226,-0.60387 0.1422,-3.33589 0.15293,-6.81391 -0.32672,-10.16067 -0.41197,-2.87463 -1.17693,-5.65066 -2.58769,-8.12895 -1.152,-2.02369 -3.08288,-4.18504 -5.39814,-4.43417 -9.08295,-0.97737 -23.29805,7.27793 -31.96131,12.56312 -2.57533,1.57114 -4.72005,2.91428 -6.01839,3.63124 -1.69237,0.93454 -1.7917,-1.43553 -3.69405,-1.77994 -0.5987,-0.10838 -1.29203,-0.20181 -2.04235,-0.28068 -1.13307,-0.22929 -3.2464,-0.32736 -5.55411,-0.30138 -2.30794,-0.026 -4.42149,0.072 -5.554492,0.30138 -0.7501,0.0788 -1.4434,0.17232 -2.04198,0.28068 -1.90232,0.34441 -2.00167,2.71448 -3.69403,1.77994 -1.30324,-0.71968 -3.42751,-2.05215 -6.01633,-3.63124 -8.22646,-5.01783 -21.45823,-12.70772 -30.543896,-12.64196 z"
       style="display:inline;opacity:1;fill:#d8dad3;fill-opacity:1;stroke:none;stroke-width:0.360712;stroke-linecap:butt;stroke-linejoin:miter;stroke-miterlimit:4;stroke-dasharray:none;stroke-opacity:1"
       inkscape:connector-curvature="0" />
  </g>
</svg>
