<svg id="visual" viewBox="0 0 960 540" width="960" height="540" xmlns="http://www.w3.org/2000/svg" xmlns:xlink="http://www.w3.org/1999/xlink" version="1.1"><rect width="960" height="540" fill="#004643"></rect><g><g transform="translate(778 399)"><path d="M0 -104.1L90.1 -52L90.1 52L0 104.1L-90.1 52L-90.1 -52Z" stroke="#001e1d" fill="none" stroke-width="4"></path></g><g transform="translate(583 219)"><path d="M0 -90L77.9 -45L77.9 45L0 90L-77.9 45L-77.9 -45Z" stroke="#001e1d" fill="none" stroke-width="4"></path></g><g transform="translate(173 288)"><path d="M0 -72L62.4 -36L62.4 36L0 72L-62.4 36L-62.4 -36Z" stroke="#001e1d" fill="none" stroke-width="4"></path></g><g transform="translate(835 157)"><path d="M0 -75L65 -37.5L65 37.5L0 75L-65 37.5L-65 -37.5Z" stroke="#001e1d" fill="none" stroke-width="4"></path></g><g transform="translate(385 433)"><path d="M0 -62L53.7 -31L53.7 31L0 62L-53.7 31L-53.7 -31Z" stroke="#001e1d" fill="none" stroke-width="4"></path></g><g transform="translate(381 142)"><path d="M0 -51L44.2 -25.5L44.2 25.5L0 51L-44.2 25.5L-44.2 -25.5Z" stroke="#001e1d" fill="none" stroke-width="4"></path></g></g></svg>