<svg id="visual" viewBox="0 0 960 540" width="960" height="540" xmlns="http://www.w3.org/2000/svg" xmlns:xlink="http://www.w3.org/1999/xlink" version="1.1"><rect x="0" y="0" width="960" height="540" fill="#612940"></rect><path d="M0 463L14.5 456.8C29 450.7 58 438.3 87.2 420.2C116.3 402 145.7 378 174.8 383.2C204 388.3 233 422.7 262 420.3C291 418 320 379 349 380.5C378 382 407 424 436.2 437.3C465.3 450.7 494.7 435.3 523.8 433.7C553 432 582 444 611 445.2C640 446.3 669 436.7 698 420C727 403.3 756 379.7 785.2 358.8C814.3 338 843.7 320 872.8 315.7C902 311.3 931 320.7 945.5 325.3L960 330L960 541L945.5 541C931 541 902 541 872.8 541C843.7 541 814.3 541 785.2 541C756 541 727 541 698 541C669 541 640 541 611 541C582 541 553 541 523.8 541C494.7 541 465.3 541 436.2 541C407 541 378 541 349 541C320 541 291 541 262 541C233 541 204 541 174.8 541C145.7 541 116.3 541 87.2 541C58 541 29 541 14.5 541L0 541Z" fill="#9d6381" stroke-linecap="round" stroke-linejoin="miter"></path></svg>