<svg id="visual" viewBox="0 0 960 540" width="960" height="540" xmlns="http://www.w3.org/2000/svg" xmlns:xlink="http://www.w3.org/1999/xlink" version="1.1"><rect x="0" y="0" width="960" height="540" fill="#232946"></rect><path d="M0 321L22.8 328.8C45.7 336.7 91.3 352.3 137 365C182.7 377.7 228.3 387.3 274 379C319.7 370.7 365.3 344.3 411.2 339.5C457 334.7 503 351.3 548.8 363.7C594.7 376 640.3 384 686 378C731.7 372 777.3 352 823 343C868.7 334 914.3 336 937.2 337L960 338L960 541L937.2 541C914.3 541 868.7 541 823 541C777.3 541 731.7 541 686 541C640.3 541 594.7 541 548.8 541C503 541 457 541 411.2 541C365.3 541 319.7 541 274 541C228.3 541 182.7 541 137 541C91.3 541 45.7 541 22.8 541L0 541Z" fill="#a2ade6"></path><path d="M0 379L22.8 383.3C45.7 387.7 91.3 396.3 137 394.7C182.7 393 228.3 381 274 381.2C319.7 381.3 365.3 393.7 411.2 399.5C457 405.3 503 404.7 548.8 402.2C594.7 399.7 640.3 395.3 686 393.7C731.7 392 777.3 393 823 392.2C868.7 391.3 914.3 388.7 937.2 387.3L960 386L960 541L937.2 541C914.3 541 868.7 541 823 541C777.3 541 731.7 541 686 541C640.3 541 594.7 541 548.8 541C503 541 457 541 411.2 541C365.3 541 319.7 541 274 541C228.3 541 182.7 541 137 541C91.3 541 45.7 541 22.8 541L0 541Z" fill="#adb7e9"></path><path d="M0 446L22.8 439.7C45.7 433.3 91.3 420.7 137 417.3C182.7 414 228.3 420 274 428.5C319.7 437 365.3 448 411.2 445.7C457 443.3 503 427.7 548.8 426.2C594.7 424.7 640.3 437.3 686 434.2C731.7 431 777.3 412 823 413.2C868.7 414.3 914.3 435.7 937.2 446.3L960 457L960 541L937.2 541C914.3 541 868.7 541 823 541C777.3 541 731.7 541 686 541C640.3 541 594.7 541 548.8 541C503 541 457 541 411.2 541C365.3 541 319.7 541 274 541C228.3 541 182.7 541 137 541C91.3 541 45.7 541 22.8 541L0 541Z" fill="#b8c1ec"></path><path d="M0 475L22.8 467.8C45.7 460.7 91.3 446.3 137 444C182.7 441.7 228.3 451.3 274 455.2C319.7 459 365.3 457 411.2 452.8C457 448.7 503 442.3 548.8 439.3C594.7 436.3 640.3 436.7 686 436.5C731.7 436.3 777.3 435.7 823 444.2C868.7 452.7 914.3 470.3 937.2 479.2L960 488L960 541L937.2 541C914.3 541 868.7 541 823 541C777.3 541 731.7 541 686 541C640.3 541 594.7 541 548.8 541C503 541 457 541 411.2 541C365.3 541 319.7 541 274 541C228.3 541 182.7 541 137 541C91.3 541 45.7 541 22.8 541L0 541Z" fill="#c4caef"></path><path d="M0 482L22.8 487.5C45.7 493 91.3 504 137 505.7C182.7 507.3 228.3 499.7 274 496.7C319.7 493.7 365.3 495.3 411.2 495.3C457 495.3 503 493.7 548.8 491C594.7 488.3 640.3 484.7 686 486.2C731.7 487.7 777.3 494.3 823 498.3C868.7 502.3 914.3 503.7 937.2 504.3L960 505L960 541L937.2 541C914.3 541 868.7 541 823 541C777.3 541 731.7 541 686 541C640.3 541 594.7 541 548.8 541C503 541 457 541 411.2 541C365.3 541 319.7 541 274 541C228.3 541 182.7 541 137 541C91.3 541 45.7 541 22.8 541L0 541Z" fill="#d0d4f2"></path></svg>