<svg id="visual" viewBox="0 0 960 540" width="960" height="540" xmlns="http://www.w3.org/2000/svg" xmlns:xlink="http://www.w3.org/1999/xlink" version="1.1"><rect x="0" y="0" width="960" height="540" fill="#566246"></rect><defs><linearGradient id="grad1_0" x1="43.8%" y1="100%" x2="100%" y2="0%"><stop offset="14.444444444444446%" stop-color="#a4c2a5" stop-opacity="1"></stop><stop offset="85.55555555555554%" stop-color="#a4c2a5" stop-opacity="1"></stop></linearGradient></defs><defs><linearGradient id="grad1_1" x1="43.8%" y1="100%" x2="100%" y2="0%"><stop offset="14.444444444444446%" stop-color="#a4c2a5" stop-opacity="1"></stop><stop offset="85.55555555555554%" stop-color="#7c9173" stop-opacity="1"></stop></linearGradient></defs><defs><linearGradient id="grad1_2" x1="43.8%" y1="100%" x2="100%" y2="0%"><stop offset="14.444444444444446%" stop-color="#566246" stop-opacity="1"></stop><stop offset="85.55555555555554%" stop-color="#7c9173" stop-opacity="1"></stop></linearGradient></defs><defs><linearGradient id="grad2_0" x1="0%" y1="100%" x2="56.3%" y2="0%"><stop offset="14.444444444444446%" stop-color="#a4c2a5" stop-opacity="1"></stop><stop offset="85.55555555555554%" stop-color="#a4c2a5" stop-opacity="1"></stop></linearGradient></defs><defs><linearGradient id="grad2_1" x1="0%" y1="100%" x2="56.3%" y2="0%"><stop offset="14.444444444444446%" stop-color="#7c9173" stop-opacity="1"></stop><stop offset="85.55555555555554%" stop-color="#a4c2a5" stop-opacity="1"></stop></linearGradient></defs><defs><linearGradient id="grad2_2" x1="0%" y1="100%" x2="56.3%" y2="0%"><stop offset="14.444444444444446%" stop-color="#7c9173" stop-opacity="1"></stop><stop offset="85.55555555555554%" stop-color="#566246" stop-opacity="1"></stop></linearGradient></defs><g transform="translate(960, 540)"><path d="M-540 0C-533.9 -56.6 -527.8 -113.1 -507.9 -165C-487.9 -216.9 -454.1 -264.2 -413.4 -300.4C-372.8 -336.5 -325.3 -361.7 -279.8 -385.1C-234.3 -408.5 -190.6 -430.3 -144.3 -444.1C-98 -458 -49 -464 0 -470L0 0Z" fill="#69795c"></path><path d="M-360 0C-355.9 -37.7 -351.9 -75.4 -338.6 -110C-325.3 -144.6 -302.7 -176.1 -275.6 -200.2C-248.5 -224.4 -216.9 -241.1 -186.5 -256.7C-156.2 -272.3 -127.1 -286.8 -96.2 -296.1C-65.3 -305.3 -32.7 -309.3 0 -313.3L0 0Z" fill="#90a98c"></path><path d="M-180 0C-178 -18.9 -175.9 -37.7 -169.3 -55C-162.6 -72.3 -151.4 -88.1 -137.8 -100.1C-124.3 -112.2 -108.4 -120.6 -93.3 -128.4C-78.1 -136.2 -63.5 -143.4 -48.1 -148C-32.7 -152.7 -16.3 -154.7 0 -156.7L0 0Z" fill="#a4c2a5"></path></g><g transform="translate(0, 0)"><path d="M535 0C532.5 55.9 530.1 111.7 513.6 166.9C497.1 222 466.6 276.5 420.7 305.6C374.8 334.8 313.6 338.7 270.4 372.1C227.2 405.6 202.1 468.6 160.1 492.6C118 516.7 59 501.9 0 487L0 0Z" fill="#69795c"></path><path d="M356.7 0C355 37.2 353.4 74.5 342.4 111.2C331.4 148 311 184.3 280.5 203.8C249.9 223.2 209 225.8 180.3 248.1C151.5 270.4 134.7 312.4 106.7 328.4C78.7 344.5 39.3 334.6 0 324.7L0 0Z" fill="#90a98c"></path><path d="M178.3 0C177.5 18.6 176.7 37.2 171.2 55.6C165.7 74 155.5 92.2 140.2 101.9C124.9 111.6 104.5 112.9 90.1 124C75.7 135.2 67.4 156.2 53.4 164.2C39.3 172.2 19.7 167.3 0 162.3L0 0Z" fill="#a4c2a5"></path></g></svg>