<svg id="visual" viewBox="0 0 960 540" width="960" height="540" xmlns="http://www.w3.org/2000/svg" xmlns:xlink="http://www.w3.org/1999/xlink" version="1.1"><path d="M0 98L53 98L53 77L107 77L107 55L160 55L160 50L213 50L213 109L267 109L267 87L320 87L320 125L373 125L373 82L427 82L427 131L480 131L480 55L533 55L533 131L587 131L587 98L640 98L640 44L693 44L693 77L747 77L747 71L800 71L800 71L853 71L853 125L907 125L907 50L960 50L960 114L960 0L960 0L907 0L907 0L853 0L853 0L800 0L800 0L747 0L747 0L693 0L693 0L640 0L640 0L587 0L587 0L533 0L533 0L480 0L480 0L427 0L427 0L373 0L373 0L320 0L320 0L267 0L267 0L213 0L213 0L160 0L160 0L107 0L107 0L53 0L53 0L0 0Z" fill="#bfb7b6"></path><path d="M0 309L53 309L53 325L107 325L107 163L160 163L160 271L213 271L213 320L267 320L267 233L320 233L320 271L373 271L373 341L427 341L427 303L480 303L480 293L533 293L533 255L587 255L587 195L640 195L640 168L693 168L693 212L747 212L747 217L800 217L800 271L853 271L853 276L907 276L907 330L960 330L960 271L960 112L960 48L907 48L907 123L853 123L853 69L800 69L800 69L747 69L747 75L693 75L693 42L640 42L640 96L587 96L587 129L533 129L533 53L480 53L480 129L427 129L427 80L373 80L373 123L320 123L320 85L267 85L267 107L213 107L213 48L160 48L160 53L107 53L107 75L53 75L53 96L0 96Z" fill="#999196"></path><path d="M0 401L53 401L53 417L107 417L107 422L160 422L160 411L213 411L213 455L267 455L267 444L320 444L320 411L373 411L373 487L427 487L427 465L480 465L480 417L533 417L533 411L587 411L587 422L640 422L640 401L693 401L693 476L747 476L747 417L800 417L800 417L853 417L853 465L907 465L907 438L960 438L960 433L960 269L960 328L907 328L907 274L853 274L853 269L800 269L800 215L747 215L747 210L693 210L693 166L640 166L640 193L587 193L587 253L533 253L533 291L480 291L480 301L427 301L427 339L373 339L373 269L320 269L320 231L267 231L267 318L213 318L213 269L160 269L160 161L107 161L107 323L53 323L53 307L0 307Z" fill="#706f78"></path><path d="M0 541L53 541L53 541L107 541L107 541L160 541L160 541L213 541L213 541L267 541L267 541L320 541L320 541L373 541L373 541L427 541L427 541L480 541L480 541L533 541L533 541L587 541L587 541L640 541L640 541L693 541L693 541L747 541L747 541L800 541L800 541L853 541L853 541L907 541L907 541L960 541L960 541L960 431L960 436L907 436L907 463L853 463L853 415L800 415L800 415L747 415L747 474L693 474L693 399L640 399L640 420L587 420L587 409L533 409L533 415L480 415L480 463L427 463L427 485L373 485L373 409L320 409L320 442L267 442L267 453L213 453L213 409L160 409L160 420L107 420L107 415L53 415L53 399L0 399Z" fill="#435058"></path></svg>