<svg id="visual" viewBox="0 0 900 600" width="900" height="600" xmlns="http://www.w3.org/2000/svg" xmlns:xlink="http://www.w3.org/1999/xlink" version="1.1"><rect x="0" y="0" width="900" height="600" fill="#191919"></rect><path d="M524 600L591 600L591 545L492 545L492 491L509 491L509 436L577 436L577 382L530 382L530 327L516 327L516 273L561 273L561 218L573 218L573 164L518 164L518 109L513 109L513 55L551 55L551 0L900 0L900 55L900 55L900 109L900 109L900 164L900 164L900 218L900 218L900 273L900 273L900 327L900 327L900 382L900 382L900 436L900 436L900 491L900 491L900 545L900 545L900 600L900 600Z" fill="#d05353"></path><path d="M618 600L629 600L629 545L543 545L543 491L606 491L606 436L627 436L627 382L580 382L580 327L638 327L638 273L650 273L650 218L644 218L644 164L539 164L539 109L617 109L617 55L563 55L563 0L900 0L900 55L900 55L900 109L900 109L900 164L900 164L900 218L900 218L900 273L900 273L900 327L900 327L900 382L900 382L900 436L900 436L900 491L900 491L900 545L900 545L900 600L900 600Z" fill="#dd6b52"></path><path d="M658 600L666 600L666 545L661 545L661 491L592 491L592 436L596 436L596 382L633 382L633 327L659 327L659 273L616 273L616 218L598 218L598 164L685 164L685 109L696 109L696 55L675 55L675 0L900 0L900 55L900 55L900 109L900 109L900 164L900 164L900 218L900 218L900 273L900 273L900 327L900 327L900 382L900 382L900 436L900 436L900 491L900 491L900 545L900 545L900 600L900 600Z" fill="#e78454"></path><path d="M679 600L701 600L701 545L674 545L674 491L701 491L701 436L658 436L658 382L655 382L655 327L698 327L698 273L703 273L703 218L662 218L662 164L730 164L730 109L688 109L688 55L659 55L659 0L900 0L900 55L900 55L900 109L900 109L900 164L900 164L900 218L900 218L900 273L900 273L900 327L900 327L900 382L900 382L900 436L900 436L900 491L900 491L900 545L900 545L900 600L900 600Z" fill="#ef9d59"></path><path d="M777 600L783 600L783 545L726 545L726 491L721 491L721 436L696 436L696 382L789 382L789 327L769 327L769 273L727 273L727 218L781 218L781 164L714 164L714 109L775 109L775 55L713 55L713 0L900 0L900 55L900 55L900 109L900 109L900 164L900 164L900 218L900 218L900 273L900 273L900 327L900 327L900 382L900 382L900 436L900 436L900 491L900 491L900 545L900 545L900 600L900 600Z" fill="#f4b663"></path><path d="M792 600L760 600L760 545L799 545L799 491L761 491L761 436L791 436L791 382L767 382L767 327L806 327L806 273L781 273L781 218L807 218L807 164L799 164L799 109L793 109L793 55L826 55L826 0L900 0L900 55L900 55L900 109L900 109L900 164L900 164L900 218L900 218L900 273L900 273L900 327L900 327L900 382L900 382L900 436L900 436L900 491L900 491L900 545L900 545L900 600L900 600Z" fill="#f8ce71"></path><path d="M883 600L835 600L835 545L852 545L852 491L875 491L875 436L864 436L864 382L810 382L810 327L807 327L807 273L854 273L854 218L844 218L844 164L870 164L870 109L820 109L820 55L857 55L857 0L900 0L900 55L900 55L900 109L900 109L900 164L900 164L900 218L900 218L900 273L900 273L900 327L900 327L900 382L900 382L900 436L900 436L900 491L900 491L900 545L900 545L900 600L900 600Z" fill="#f9e784"></path></svg>