<svg id="visual" viewBox="0 0 960 540" width="960" height="540" xmlns="http://www.w3.org/2000/svg" xmlns:xlink="http://www.w3.org/1999/xlink" version="1.1"><rect x="0" y="0" width="960" height="540" fill="#fef6e4"></rect><defs><linearGradient id="grad1_0" x1="43.8%" y1="0%" x2="100%" y2="100%"><stop offset="14.444444444444446%" stop-color="#f582ae" stop-opacity="1"></stop><stop offset="85.55555555555554%" stop-color="#f582ae" stop-opacity="1"></stop></linearGradient></defs><defs><linearGradient id="grad1_1" x1="43.8%" y1="0%" x2="100%" y2="100%"><stop offset="14.444444444444446%" stop-color="#f582ae" stop-opacity="1"></stop><stop offset="85.55555555555554%" stop-color="#ffbfa9" stop-opacity="1"></stop></linearGradient></defs><defs><linearGradient id="grad1_2" x1="43.8%" y1="0%" x2="100%" y2="100%"><stop offset="14.444444444444446%" stop-color="#fef6e4" stop-opacity="1"></stop><stop offset="85.55555555555554%" stop-color="#ffbfa9" stop-opacity="1"></stop></linearGradient></defs><defs><linearGradient id="grad2_0" x1="0%" y1="0%" x2="56.3%" y2="100%"><stop offset="14.444444444444446%" stop-color="#f582ae" stop-opacity="1"></stop><stop offset="85.55555555555554%" stop-color="#f582ae" stop-opacity="1"></stop></linearGradient></defs><defs><linearGradient id="grad2_1" x1="0%" y1="0%" x2="56.3%" y2="100%"><stop offset="14.444444444444446%" stop-color="#ffbfa9" stop-opacity="1"></stop><stop offset="85.55555555555554%" stop-color="#f582ae" stop-opacity="1"></stop></linearGradient></defs><defs><linearGradient id="grad2_2" x1="0%" y1="0%" x2="56.3%" y2="100%"><stop offset="14.444444444444446%" stop-color="#ffbfa9" stop-opacity="1"></stop><stop offset="85.55555555555554%" stop-color="#fef6e4" stop-opacity="1"></stop></linearGradient></defs><g transform="translate(960, 0)"><path d="M0 324C-27.5 301.2 -54.9 278.4 -88.4 272C-121.8 265.6 -161.2 275.7 -190.4 262.1C-219.7 248.6 -238.7 211.5 -243.5 176.9C-248.4 142.4 -239.1 110.3 -250.1 81.3C-261.2 52.2 -292.6 26.1 -324 0L0 0Z" fill="#fddcc0"></path><path d="M0 216C-18.3 200.8 -36.6 185.6 -58.9 181.3C-81.2 177.1 -107.5 183.8 -127 174.7C-146.4 165.7 -159.1 141 -162.3 117.9C-165.6 94.9 -159.4 73.6 -166.8 54.2C-174.1 34.8 -195.1 17.4 -216 0L0 0Z" fill="#ff9fa3"></path><path d="M0 108C-9.2 100.4 -18.3 92.8 -29.5 90.7C-40.6 88.5 -53.7 91.9 -63.5 87.4C-73.2 82.9 -79.6 70.5 -81.2 59C-82.8 47.5 -79.7 36.8 -83.4 27.1C-87.1 17.4 -97.5 8.7 -108 0L0 0Z" fill="#f582ae"></path></g><g transform="translate(0, 540)"><path d="M0 -324C30.2 -312.2 60.4 -300.3 95.5 -293.9C130.6 -287.4 170.7 -286.4 190.4 -262.1C210.2 -237.9 209.6 -190.4 217.6 -158.1C225.7 -125.8 242.4 -108.8 261.5 -85C280.7 -61.2 302.4 -30.6 324 0L0 0Z" fill="#fddcc0"></path><path d="M0 -216C20.1 -208.1 40.2 -200.2 63.7 -195.9C87.1 -191.6 113.8 -190.9 127 -174.7C140.1 -158.6 139.7 -126.9 145.1 -105.4C150.4 -83.9 161.6 -72.5 174.4 -56.7C187.1 -40.8 201.6 -20.4 216 0L0 0Z" fill="#ff9fa3"></path><path d="M0 -108C10.1 -104.1 20.1 -100.1 31.8 -98C43.5 -95.8 56.9 -95.5 63.5 -87.4C70.1 -79.3 69.9 -63.5 72.5 -52.7C75.2 -41.9 80.8 -36.3 87.2 -28.3C93.6 -20.4 100.8 -10.2 108 0L0 0Z" fill="#f582ae"></path></g></svg>