<svg id="visual" viewBox="0 0 540 960" width="540" height="960" xmlns="http://www.w3.org/2000/svg" xmlns:xlink="http://www.w3.org/1999/xlink" version="1.1"><rect x="0" y="0" width="540" height="960" fill="#612940"></rect><path d="M0 663L15 662.7C30 662.3 60 661.7 90 693.7C120 725.7 150 790.3 180 807.2C210 824 240 793 270 788C300 783 330 804 360 818C390 832 420 839 450 845.5C480 852 510 858 525 861L540 864L540 961L525 961C510 961 480 961 450 961C420 961 390 961 360 961C330 961 300 961 270 961C240 961 210 961 180 961C150 961 120 961 90 961C60 961 30 961 15 961L0 961Z" fill="#9d6381" stroke-linecap="round" stroke-linejoin="miter"></path></svg>