<svg id="visual" viewBox="0 0 540 960" width="540" height="960" xmlns="http://www.w3.org/2000/svg" xmlns:xlink="http://www.w3.org/1999/xlink" version="1.1"><path d="M0 366L30 366L30 337L60 337L60 337L90 337L90 318L120 318L120 299L150 299L150 231L180 231L180 251L210 251L210 279L240 279L240 337L270 337L270 327L300 327L300 289L330 289L330 241L360 241L360 337L390 337L390 375L420 375L420 308L450 308L450 251L480 251L480 308L510 308L510 279L540 279L540 299L540 0L540 0L510 0L510 0L480 0L480 0L450 0L450 0L420 0L420 0L390 0L390 0L360 0L360 0L330 0L330 0L300 0L300 0L270 0L270 0L240 0L240 0L210 0L210 0L180 0L180 0L150 0L150 0L120 0L120 0L90 0L90 0L60 0L60 0L30 0L30 0L0 0Z" fill="#bfb7b6"></path><path d="M0 481L30 481L30 519L60 519L60 471L90 471L90 462L120 462L120 433L150 433L150 395L180 395L180 385L210 385L210 452L240 452L240 519L270 519L270 519L300 519L300 404L330 404L330 414L360 414L360 500L390 500L390 539L420 539L420 500L450 500L450 395L480 395L480 433L510 433L510 404L540 404L540 423L540 297L540 277L510 277L510 306L480 306L480 249L450 249L450 306L420 306L420 373L390 373L390 335L360 335L360 239L330 239L330 287L300 287L300 325L270 325L270 335L240 335L240 277L210 277L210 249L180 249L180 229L150 229L150 297L120 297L120 316L90 316L90 335L60 335L60 335L30 335L30 364L0 364Z" fill="#999196"></path><path d="M0 750L30 750L30 798L60 798L60 740L90 740L90 750L120 750L120 807L150 807L150 740L180 740L180 750L210 750L210 779L240 779L240 807L270 807L270 788L300 788L300 711L330 711L330 740L360 740L360 798L390 798L390 731L420 731L420 807L450 807L450 779L480 779L480 711L510 711L510 731L540 731L540 788L540 421L540 402L510 402L510 431L480 431L480 393L450 393L450 498L420 498L420 537L390 537L390 498L360 498L360 412L330 412L330 402L300 402L300 517L270 517L270 517L240 517L240 450L210 450L210 383L180 383L180 393L150 393L150 431L120 431L120 460L90 460L90 469L60 469L60 517L30 517L30 479L0 479Z" fill="#706f78"></path><path d="M0 961L30 961L30 961L60 961L60 961L90 961L90 961L120 961L120 961L150 961L150 961L180 961L180 961L210 961L210 961L240 961L240 961L270 961L270 961L300 961L300 961L330 961L330 961L360 961L360 961L390 961L390 961L420 961L420 961L450 961L450 961L480 961L480 961L510 961L510 961L540 961L540 961L540 786L540 729L510 729L510 709L480 709L480 777L450 777L450 805L420 805L420 729L390 729L390 796L360 796L360 738L330 738L330 709L300 709L300 786L270 786L270 805L240 805L240 777L210 777L210 748L180 748L180 738L150 738L150 805L120 805L120 748L90 748L90 738L60 738L60 796L30 796L30 748L0 748Z" fill="#435058"></path></svg>