<svg id="visual" viewBox="0 0 540 960" width="540" height="960" xmlns="http://www.w3.org/2000/svg" xmlns:xlink="http://www.w3.org/1999/xlink" version="1.1"><rect x="0" y="0" width="540" height="960" fill="#191919"></rect><path d="M315 960L355 960L355 873L296 873L296 785L306 785L306 698L346 698L346 611L318 611L318 524L310 524L310 436L337 436L337 349L344 349L344 262L311 262L311 175L308 175L308 87L331 87L331 0L540 0L540 87L540 87L540 175L540 175L540 262L540 262L540 349L540 349L540 436L540 436L540 524L540 524L540 611L540 611L540 698L540 698L540 785L540 785L540 873L540 873L540 960L540 960Z" fill="#d05353"></path><path d="M371 960L378 960L378 873L326 873L326 785L364 785L364 698L376 698L376 611L348 611L348 524L383 524L383 436L390 436L390 349L387 349L387 262L324 262L324 175L371 175L371 87L338 87L338 0L540 0L540 87L540 87L540 175L540 175L540 262L540 262L540 349L540 349L540 436L540 436L540 524L540 524L540 611L540 611L540 698L540 698L540 785L540 785L540 873L540 873L540 960L540 960Z" fill="#dd6b52"></path><path d="M395 960L400 960L400 873L397 873L397 785L356 785L356 698L358 698L358 611L380 611L380 524L396 524L396 436L370 436L370 349L359 349L359 262L412 262L412 175L418 175L418 87L406 87L406 0L540 0L540 87L540 87L540 175L540 175L540 262L540 262L540 349L540 349L540 436L540 436L540 524L540 524L540 611L540 611L540 698L540 698L540 785L540 785L540 873L540 873L540 960L540 960Z" fill="#e78454"></path><path d="M408 960L421 960L421 873L405 873L405 785L421 785L421 698L395 698L395 611L393 611L393 524L419 524L419 436L422 436L422 349L398 349L398 262L438 262L438 175L413 175L413 87L396 87L396 0L540 0L540 87L540 87L540 175L540 175L540 262L540 262L540 349L540 349L540 436L540 436L540 524L540 524L540 611L540 611L540 698L540 698L540 785L540 785L540 873L540 873L540 960L540 960Z" fill="#ef9d59"></path><path d="M466 960L470 960L470 873L436 873L436 785L433 785L433 698L418 698L418 611L474 611L474 524L462 524L462 436L437 436L437 349L469 349L469 262L429 262L429 175L465 175L465 87L428 87L428 0L540 0L540 87L540 87L540 175L540 175L540 262L540 262L540 349L540 349L540 436L540 436L540 524L540 524L540 611L540 611L540 698L540 698L540 785L540 785L540 873L540 873L540 960L540 960Z" fill="#f4b663"></path><path d="M476 960L456 960L456 873L480 873L480 785L457 785L457 698L475 698L475 611L461 611L461 524L484 524L484 436L469 436L469 349L485 349L485 262L480 262L480 175L476 175L476 87L496 87L496 0L540 0L540 87L540 87L540 175L540 175L540 262L540 262L540 349L540 349L540 436L540 436L540 524L540 524L540 611L540 611L540 698L540 698L540 785L540 785L540 873L540 873L540 960L540 960Z" fill="#f8ce71"></path><path d="M530 960L501 960L501 873L512 873L512 785L525 785L525 698L519 698L519 611L486 611L486 524L484 524L484 436L513 436L513 349L507 349L507 262L523 262L523 175L492 175L492 87L515 87L515 0L540 0L540 87L540 87L540 175L540 175L540 262L540 262L540 349L540 349L540 436L540 436L540 524L540 524L540 611L540 611L540 698L540 698L540 785L540 785L540 873L540 873L540 960L540 960Z" fill="#f9e784"></path></svg>