<svg id="visual" viewBox="0 0 540 960" width="540" height="960" xmlns="http://www.w3.org/2000/svg" xmlns:xlink="http://www.w3.org/1999/xlink" version="1.1"><rect x="0" y="0" width="540" height="960" fill="#232946"></rect><path d="M0 592L12.8 597C25.7 602 51.3 612 77 628.3C102.7 644.7 128.3 667.3 154 665.7C179.7 664 205.3 638 231.2 642.5C257 647 283 682 308.8 680.5C334.7 679 360.3 641 386 627.5C411.7 614 437.3 625 463 619C488.7 613 514.3 590 527.2 578.5L540 567L540 961L527.2 961C514.3 961 488.7 961 463 961C437.3 961 411.7 961 386 961C360.3 961 334.7 961 308.8 961C283 961 257 961 231.2 961C205.3 961 179.7 961 154 961C128.3 961 102.7 961 77 961C51.3 961 25.7 961 12.8 961L0 961Z" fill="#a2ade6"></path><path d="M0 677L12.8 690C25.7 703 51.3 729 77 721.7C102.7 714.3 128.3 673.7 154 669.2C179.7 664.7 205.3 696.3 231.2 706.7C257 717 283 706 308.8 705C334.7 704 360.3 713 386 706.7C411.7 700.3 437.3 678.7 463 663.3C488.7 648 514.3 639 527.2 634.5L540 630L540 961L527.2 961C514.3 961 488.7 961 463 961C437.3 961 411.7 961 386 961C360.3 961 334.7 961 308.8 961C283 961 257 961 231.2 961C205.3 961 179.7 961 154 961C128.3 961 102.7 961 77 961C51.3 961 25.7 961 12.8 961L0 961Z" fill="#adb7e9"></path><path d="M0 760L12.8 764.5C25.7 769 51.3 778 77 782.5C102.7 787 128.3 787 154 791.3C179.7 795.7 205.3 804.3 231.2 793.5C257 782.7 283 752.3 308.8 752C334.7 751.7 360.3 781.3 386 790.5C411.7 799.7 437.3 788.3 463 781.7C488.7 775 514.3 773 527.2 772L540 771L540 961L527.2 961C514.3 961 488.7 961 463 961C437.3 961 411.7 961 386 961C360.3 961 334.7 961 308.8 961C283 961 257 961 231.2 961C205.3 961 179.7 961 154 961C128.3 961 102.7 961 77 961C51.3 961 25.7 961 12.8 961L0 961Z" fill="#b8c1ec"></path><path d="M0 783L12.8 787.5C25.7 792 51.3 801 77 804.7C102.7 808.3 128.3 806.7 154 816.5C179.7 826.3 205.3 847.7 231.2 847.8C257 848 283 827 308.8 817.2C334.7 807.3 360.3 808.7 386 802.5C411.7 796.3 437.3 782.7 463 791.7C488.7 800.7 514.3 832.3 527.2 848.2L540 864L540 961L527.2 961C514.3 961 488.7 961 463 961C437.3 961 411.7 961 386 961C360.3 961 334.7 961 308.8 961C283 961 257 961 231.2 961C205.3 961 179.7 961 154 961C128.3 961 102.7 961 77 961C51.3 961 25.7 961 12.8 961L0 961Z" fill="#c4caef"></path><path d="M0 845L12.8 850.2C25.7 855.3 51.3 865.7 77 867.3C102.7 869 128.3 862 154 858.2C179.7 854.3 205.3 853.7 231.2 861.8C257 870 283 887 308.8 893C334.7 899 360.3 894 386 884.2C411.7 874.3 437.3 859.7 463 857.3C488.7 855 514.3 865 527.2 870L540 875L540 961L527.2 961C514.3 961 488.7 961 463 961C437.3 961 411.7 961 386 961C360.3 961 334.7 961 308.8 961C283 961 257 961 231.2 961C205.3 961 179.7 961 154 961C128.3 961 102.7 961 77 961C51.3 961 25.7 961 12.8 961L0 961Z" fill="#d0d4f2"></path></svg>