<svg id="visual" viewBox="0 0 540 960" width="540" height="960" xmlns="http://www.w3.org/2000/svg" xmlns:xlink="http://www.w3.org/1999/xlink" version="1.1"><rect width="540" height="960" fill="#004643"></rect><g><g transform="translate(111 927)"><path d="M0 -126.9L109.9 -63.4L109.9 63.4L0 126.9L-109.9 63.4L-109.9 -63.4Z" fill="none" stroke="#001e1d" stroke-width="5"></path></g><g transform="translate(164 304)"><path d="M0 -82L71 -41L71 41L0 82L-71 41L-71 -41Z" fill="none" stroke="#001e1d" stroke-width="5"></path></g><g transform="translate(435 94)"><path d="M0 -107L92.7 -53.5L92.7 53.5L0 107L-92.7 53.5L-92.7 -53.5Z" fill="none" stroke="#001e1d" stroke-width="5"></path></g><g transform="translate(151 564)"><path d="M0 -101L87.5 -50.5L87.5 50.5L0 101L-87.5 50.5L-87.5 -50.5Z" fill="none" stroke="#001e1d" stroke-width="5"></path></g><g transform="translate(480 499)"><path d="M0 -102L88.3 -51L88.3 51L0 102L-88.3 51L-88.3 -51Z" fill="none" stroke="#001e1d" stroke-width="5"></path></g><g transform="translate(398 928)"><path d="M0 -27L23.4 -13.5L23.4 13.5L0 27L-23.4 13.5L-23.4 -13.5Z" stroke="#001e1d" fill="none" stroke-width="5"></path></g><g transform="translate(131 23)"><path d="M0 -87L75.3 -43.5L75.3 43.5L0 87L-75.3 43.5L-75.3 -43.5Z" stroke="#001e1d" fill="none" stroke-width="5"></path></g></g></svg>