<svg id="visual" viewBox="0 0 540 960" width="540" height="960" xmlns="http://www.w3.org/2000/svg" xmlns:xlink="http://www.w3.org/1999/xlink" version="1.1"><rect x="0" y="0" width="540" height="960" fill="#566246"></rect><defs><linearGradient id="grad1_0" x1="0%" y1="100%" x2="100%" y2="0%"><stop offset="30%" stop-color="#a4c2a5" stop-opacity="1"></stop><stop offset="70%" stop-color="#a4c2a5" stop-opacity="1"></stop></linearGradient></defs><defs><linearGradient id="grad1_1" x1="0%" y1="100%" x2="100%" y2="0%"><stop offset="30%" stop-color="#a4c2a5" stop-opacity="1"></stop><stop offset="70%" stop-color="#7c9173" stop-opacity="1"></stop></linearGradient></defs><defs><linearGradient id="grad1_2" x1="0%" y1="100%" x2="100%" y2="0%"><stop offset="30%" stop-color="#566246" stop-opacity="1"></stop><stop offset="70%" stop-color="#7c9173" stop-opacity="1"></stop></linearGradient></defs><defs><linearGradient id="grad2_0" x1="0%" y1="100%" x2="100%" y2="0%"><stop offset="30%" stop-color="#a4c2a5" stop-opacity="1"></stop><stop offset="70%" stop-color="#a4c2a5" stop-opacity="1"></stop></linearGradient></defs><defs><linearGradient id="grad2_1" x1="0%" y1="100%" x2="100%" y2="0%"><stop offset="30%" stop-color="#7c9173" stop-opacity="1"></stop><stop offset="70%" stop-color="#a4c2a5" stop-opacity="1"></stop></linearGradient></defs><defs><linearGradient id="grad2_2" x1="0%" y1="100%" x2="100%" y2="0%"><stop offset="30%" stop-color="#7c9173" stop-opacity="1"></stop><stop offset="70%" stop-color="#566246" stop-opacity="1"></stop></linearGradient></defs><g transform="translate(540, 960)"><path d="M-471 0C-464.8 -47.4 -458.5 -94.9 -455.6 -148C-452.6 -201.2 -452.9 -260 -432 -313.9C-411.2 -367.8 -369.2 -416.7 -317.4 -436.9C-265.6 -457 -204.1 -448.4 -149.6 -460.3C-95 -472.2 -47.5 -504.6 0 -537L0 0Z" fill="#69795c"></path><path d="M-314 0C-309.8 -31.6 -305.7 -63.3 -303.7 -98.7C-301.7 -134.1 -301.9 -173.3 -288 -209.3C-274.1 -245.2 -246.1 -277.8 -211.6 -291.2C-177.1 -304.7 -136.1 -298.9 -99.7 -306.9C-63.4 -314.8 -31.7 -336.4 0 -358L0 0Z" fill="#90a98c"></path><path d="M-157 0C-154.9 -15.8 -152.8 -31.6 -151.9 -49.3C-150.9 -67.1 -151 -86.7 -144 -104.6C-137.1 -122.6 -123.1 -138.9 -105.8 -145.6C-88.5 -152.3 -68 -149.5 -49.9 -153.4C-31.7 -157.4 -15.8 -168.2 0 -179L0 0Z" fill="#a4c2a5"></path></g><g transform="translate(0, 0)"><path d="M540 0C503.1 48.8 466.1 97.7 443.2 144C420.2 190.3 411.3 234.2 394.8 286.8C378.3 339.5 354.3 401 309.8 426.4C265.2 451.7 200 440.8 144.9 446C89.9 451.3 44.9 472.6 0 494L0 0Z" fill="#69795c"></path><path d="M360 0C335.4 32.6 310.8 65.1 295.5 96C280.2 126.9 274.2 156.1 263.2 191.2C252.2 226.3 236.2 267.4 206.5 284.2C176.8 301.1 133.3 293.9 96.6 297.4C59.9 300.9 30 315.1 0 329.3L0 0Z" fill="#90a98c"></path><path d="M180 0C167.7 16.3 155.4 32.6 147.7 48C140.1 63.4 137.1 78.1 131.6 95.6C126.1 113.2 118.1 133.7 103.3 142.1C88.4 150.6 66.7 146.9 48.3 148.7C30 150.4 15 157.5 0 164.7L0 0Z" fill="#a4c2a5"></path></g></svg>